<svg id="Capa_1" enable-background="new 0 0 512 512" height="512" viewBox="0 0 512 512" width="512" xmlns="http://www.w3.org/2000/svg"><g><path d="m256 7.5v497c5.003 0 9.421-2.458 12.146-6.223l139.905-193.562c22.298-30.847 35.449-68.743 35.449-109.715 0-103.553-83.947-187.5-187.5-187.5z" fill="#ff0f04"/><path d="m256 7.5c-103.553 0-187.5 83.947-187.5 187.5 0 40.972 13.151 78.868 35.449 109.716l139.905 193.562c2.725 3.764 7.144 6.223 12.146 6.223 4.202 0 7.914-2.458 10.203-6.223l117.52-193.562c18.73-30.848 29.777-68.744 29.777-109.716 0-103.553-70.515-187.5-157.5-187.5z" fill="#ff362d"/><path d="m256 82.5v225c62.132 0 112.5-50.368 112.5-112.5s-50.368-112.5-112.5-112.5z" fill="#ffebbe"/><path d="m256 82.5c-62.132 0-112.5 50.368-112.5 112.5s50.368 112.5 112.5 112.5c45.563 0 82.5-50.368 82.5-112.5s-36.937-112.5-82.5-112.5z" fill="#fff"/><path d="m297.38 163.921-16.946-2.552-24.434-48.869-24.434 48.869-54.028 8.137 38.926 38.34-8.956 53.898 48.492-25.174 15.21 7.896z" fill="#ffc43b"/><path d="m295.536 207.846 38.926-38.34-37.082-5.585-33.99 33.479 7.82 47.066 33.282 17.278z" fill="#ffa137"/><path d="m256 0c-107.523 0-195 87.477-195 195 0 41.28 12.75 80.739 36.871 114.109l139.908 193.566c4.227 5.839 11.038 9.325 18.221 9.325 7.182 0 13.994-3.485 18.225-9.329l139.904-193.562c24.121-33.37 36.871-72.829 36.871-114.109 0-107.523-87.477-195-195-195zm145.973 300.322-139.902 193.557c-1.435 1.983-3.648 3.121-6.071 3.121-2.422 0-4.635-1.138-6.067-3.116l-139.906-193.562c-22.26-30.797-34.027-67.217-34.027-105.322 0-99.252 80.748-180 180-180s180 80.748 180 180c0 38.105-11.767 74.525-34.027 105.322z"/><path d="m256 75c-66.168 0-120 53.832-120 120s53.832 120 120 120 120-53.832 120-120-53.832-120-120-120zm0 225c-57.897 0-105-47.103-105-105s47.103-105 105-105 105 47.103 105 105-47.103 105-105 105z"/><path d="m262.708 109.146c-1.271-2.541-3.867-4.146-6.708-4.146s-5.438 1.605-6.708 4.146l-22.693 45.386-50.178 7.557c-2.809.423-5.138 2.397-6.016 5.099s-.154 5.668 1.87 7.661l26.885 26.48c2.951 2.907 7.699 2.87 10.606-.081s2.871-7.699-.081-10.606l-16.198-15.955 39.195-5.903c2.414-.364 4.5-1.879 5.591-4.063l17.727-35.45 17.727 35.452c1.092 2.184 3.178 3.699 5.591 4.063l39.195 5.903-28.239 27.814c-1.739 1.713-2.536 4.165-2.136 6.573l6.497 39.101-35.18-18.263c-2.165-1.124-4.744-1.124-6.911 0l-35.179 18.263 3.727-22.429c.679-4.086-2.083-7.949-6.169-8.628-4.086-.683-7.949 2.083-8.628 6.169l-6.186 37.226c-.466 2.802.692 5.627 2.99 7.297 2.297 1.669 5.341 1.897 7.864.589l45.037-23.38 45.037 23.38c1.088.565 2.273.843 3.454.843 1.556 0 3.104-.483 4.409-1.432 2.299-1.67 3.456-4.495 2.99-7.297l-8.317-50.057 36.151-35.608c2.024-1.993 2.748-4.959 1.87-7.661s-3.207-4.675-6.016-5.099l-50.178-7.557z"/></g></svg>